<svg xmlns="http://www.w3.org/2000/svg" width="23.281" height="17.218" viewBox="0 0 23.281 17.218"><path data-name="Shape 53 copy" d="M19.869.018L3.459-.005A3.429 3.429 0 00.025 3.417L.011 13.755a3.428 3.428 0 003.424 3.432l16.409.022a3.427 3.427 0 003.435-3.422l.015-10.338A3.428 3.428 0 0019.869.018zm-4.793 8.987s-.015-.042-.034-.106a34.314 34.314 0 01-3.093 2.153A16.879 16.879 0 018.742 9.02l-.016.054a90.2 90.2 0 00-7.037 7.122 44.451 44.451 0 016.567-7.561 31.678 31.678 0 01-6.55-7.422S8.07 8.726 11.937 9.987c0 0 3.368-1.1 9.919-9.168 0 0-1.388 3.674-6.351 7.71a44.36 44.36 0 016.759 7.445 90.316 90.316 0 00-7.188-6.969z" fill="#0988b9" fill-rule="evenodd"/></svg>