<svg xmlns="http://www.w3.org/2000/svg" width="22.5" height="27.75" viewBox="0 0 22.5 27.75"><path data-name="Shape 55 copy" d="M6.356 13.637c-.763.808.032 1.9.923 2.937a27.22 27.22 0 003.982 3.743c1.9 1.455 2.89 2.092 3.62 1.321l5.535 5.2c-.864.952-6 2.866-14.286-5.117C-1.735 14.148-.095 9.33.678 8.306zm16 11.227a1.479 1.479 0 00.019-1.2l-4.379-4.054a.881.881 0 00-1.221.038l-1.491 1.564 5.542 5.218s1.5-1.56 1.5-1.562zm-13.9-13.217c.284-.36 0-.888-.568-1.194v-.006s-4.288-4.17-4.29-4.17a.753.753 0 00-1.115.036L1.045 7.878l5.8 5.333s1.607-1.558 1.607-1.561zM5.384 5.406L6.445.694A.576.576 0 105.322.441L4.261 5.153a.577.577 0 001.125.253zm4.107 3.348l4.252-2.3a.576.576 0 00-.549-1.012l-4.251 2.3a.575.575 0 00.524 1.023zm-1.785-1.74l2.813-3.928a.576.576 0 00-.937-.67L6.77 6.345a.576.576 0 00.72.852.563.563 0 00.218-.183z" fill="#0988b9" fill-rule="evenodd"/></svg>