<svg xmlns="http://www.w3.org/2000/svg" width="22.9" height="19.62" viewBox="0 0 22.9 19.62"><path d="M9.85.92a3.14 3.14 0 01.57.44 3.858 3.858 0 01.6.74 4.275 4.275 0 01.5.98 4.389 4.389 0 01.18 1.32 3.692 3.692 0 01-.64 2.21 6.651 6.651 0 01-.64.75c-.25.22-.51.45-.79.69a4.026 4.026 0 00-.45.54 1.164 1.164 0 00-.24.73.929.929 0 00.25.67 5.9 5.9 0 00.41.44l.91.71a8.833 8.833 0 011.51 1.48 3.637 3.637 0 01.63 2.13 4.252 4.252 0 01-1.75 3.33 8.247 8.247 0 01-5.23 1.54 6.842 6.842 0 01-4.27-1.15 3.087 3.087 0 01-1.42-2.52 3.6 3.6 0 01.46-1.59 4.036 4.036 0 011.64-1.54 8.983 8.983 0 012.78-.95 21.236 21.236 0 012.4-.22 6.159 6.159 0 01-.53-.8 1.734 1.734 0 01-.27-.98 1.428 1.428 0 01.11-.58c.06-.16.11-.31.16-.44-.31.03-.6.05-.87.05a4.309 4.309 0 01-3.32-1.3 3.767 3.767 0 01-1.19-2.75A4.589 4.589 0 013.04 1.4 6.084 6.084 0 015.45.22a12.112 12.112 0 012.32-.24h5.43l-1.68.94H9.85zM7.12 8.2a2.593 2.593 0 001.79-.73 2.474 2.474 0 00.43-1.01 7.623 7.623 0 00.06-.87 6.523 6.523 0 00-.82-3.08A3.546 3.546 0 007.56 1.3 2.673 2.673 0 006.08.84a2.4 2.4 0 00-1.84.84 3.059 3.059 0 00-.59 1.92 5.851 5.851 0 00.87 2.91 4.127 4.127 0 001.08 1.2 2.468 2.468 0 001.52.49zm3.77 7.57a2.455 2.455 0 00-.68-1.71 16.1 16.1 0 00-2.23-1.69 5.527 5.527 0 00-.61-.03 6.979 6.979 0 00-1.07.05 12.774 12.774 0 00-1.73.37c-.13.05-.33.12-.58.22a3.794 3.794 0 00-.77.47 2.7 2.7 0 00-.63.78 2.2 2.2 0 00-.3 1.18 2.627 2.627 0 001.3 2.24 5.833 5.833 0 003.37.9 4.789 4.789 0 002.94-.8 2.39 2.39 0 00.99-1.98zm12-10.73h-3.57v3.71h-1.13V5.04h-3.6V3.88h3.6V.23h1.13v3.65h3.57v1.16z" fill="#fff" fill-rule="evenodd"/></svg>