<svg xmlns="http://www.w3.org/2000/svg" width="23.5" height="19.63" viewBox="0 0 23.5 19.63"><path data-name="Shape 164 copy" d="M1.443.91a13.108 13.108 0 009.912 5.02s-.548-4.27 3.137-5.58c0 0 3.138-1.31 5.23 1.16 0 0 2.44-.4 2.988-1.16a3.879 3.879 0 01-1.843 2.62 6.338 6.338 0 002.64-.61 12.182 12.182 0 01-2.208 2.25c-.012.01-.022.01-.033.02-.648.25.7 4.62-3.337 9.8a14.006 14.006 0 01-8.766 4.98A11.445 11.445 0 01-.001 17.4a10.384 10.384 0 006.973-2.16s-3.586-.31-4.433-3.32c0 0 1.644 0 1.992-.05 0 0-3.835-1.31-3.785-5.01a5.587 5.587 0 002.017.51A5.2 5.2 0 011.443.91z" fill="#f4f4f4" fill-rule="evenodd"/></svg>