<svg xmlns="http://www.w3.org/2000/svg" width="24.406" height="22.03" viewBox="0 0 24.406 22.03"><path data-name="Shape 11 copy" d="M21.415 10.42h-18.4a3.009 3.009 0 00-3 3v5.61a3.007 3.007 0 003 2.99h18.4a3.007 3.007 0 003-2.99v-5.61a3.009 3.009 0 00-3-3zm-13.46 1.75H3.817v1.18h1.395v6.92H6.56v-6.92h1.4v-1.18zm2.747 6.66a1.526 1.526 0 01-.372.32.74.74 0 01-.333.13.311.311 0 01-.246-.1.5.5 0 01-.074-.31v-4.58h-1.2v5a1.3 1.3 0 00.21.8.737.737 0 00.626.26 1.434 1.434 0 00.693-.19 2.49 2.49 0 00.692-.55v.66h1.2v-5.98h-1.2v4.54zm5.236-4.23a1.045 1.045 0 00-.866-.38 1.245 1.245 0 00-.553.14 2.009 2.009 0 00-.513.42v-2.61H12.8v8.1h1.209v-.46a1.483 1.483 0 00.513.4 1.384 1.384 0 00.625.13.985.985 0 00.813-.34 1.469 1.469 0 00.282-.97v-3.31a1.8 1.8 0 00-.304-1.12zm-.933 4.27a.644.644 0 01-.1.41.409.409 0 01-.323.13.722.722 0 01-.288-.07.924.924 0 01-.285-.21v-3.72a.937.937 0 01.248-.18.576.576 0 01.253-.06.468.468 0 01.372.15.724.724 0 01.126.46v3.09zm5.382-1.45V15.9a1.776 1.776 0 00-.44-1.3 1.691 1.691 0 00-1.264-.45 1.828 1.828 0 00-1.309.48 1.7 1.7 0 00-.51 1.27v2.68a1.915 1.915 0 00.464 1.36 1.641 1.641 0 001.266.49 1.778 1.778 0 001.342-.46 1.928 1.928 0 00.451-1.39v-.3h-1.23v.27a1.263 1.263 0 01-.12.68.5.5 0 01-.415.15.45.45 0 01-.406-.18 1.277 1.277 0 01-.117-.65v-1.13h2.288zm-2.288-1.53a.9.9 0 01.123-.54.481.481 0 01.411-.16.463.463 0 01.4.16.917.917 0 01.126.54v.6H18.1v-.6zm-9.7-10.68v3.7H6.883V5.38L5.077 0h1.528l.984 3.56h.1L8.626 0h1.543zm5.784 2.06a1.712 1.712 0 01-.522 1.33 2.058 2.058 0 01-1.443.48 2 2 0 01-1.415-.5 1.732 1.732 0 01-.53-1.33V3.84a1.5 1.5 0 01.545-1.22 2.22 2.22 0 011.461-.45 1.982 1.982 0 011.373.48 1.555 1.555 0 01.531 1.23v3.39zm4.938 1.64h-1.349v-.72a2.966 2.966 0 01-.774.61 1.685 1.685 0 01-.781.21.844.844 0 01-.705-.3 1.384 1.384 0 01-.236-.88v-5.5h1.345v5.05a.519.519 0 00.088.33.33.33 0 00.273.11.816.816 0 00.377-.14 1.787 1.787 0 00.413-.35v-5h1.349v6.58zm-6.907-5.6a.583.583 0 00-.4.13.436.436 0 00-.154.35v3.58a.586.586 0 00.144.42.541.541 0 00.41.15.613.613 0 00.435-.15.54.54 0 00.162-.42V3.79a.422.422 0 00-.165-.35.659.659 0 00-.429-.13z" fill="#f4f4f4" fill-rule="evenodd"/></svg>