<svg xmlns="http://www.w3.org/2000/svg" width="32.937" height="24.38" viewBox="0 0 32.937 24.38"><path d="M21.312 12.76s-.021-.06-.049-.15a49.257 49.257 0 01-4.373 3.05 24.015 24.015 0 01-4.535-2.88l-.023.08a127.441 127.441 0 00-9.95 10.08 62.8 62.8 0 019.285-10.7A45.008 45.008 0 012.406 1.73s9 10.64 14.467 12.42c0 0 4.761-1.56 14.027-12.98 0 0-1.963 5.2-8.982 10.92a62.477 62.477 0 019.56 10.54 127.476 127.476 0 00-10.166-9.87zM28.089.04L4.884.01A4.841 4.841 0 00.029 4.85L.007 19.48a4.849 4.849 0 004.844 4.86l23.2.03a4.841 4.841 0 004.858-4.84L32.93 4.9A4.85 4.85 0 0028.089.04z" fill="#2190c1" fill-rule="evenodd"/></svg>